<svg xmlns="http://www.w3.org/2000/svg" version="1.1" xmlns:xlink="http://www.w3.org/1999/xlink" xmlns:svgjs="http://svgjs.dev/svgjs" width="2000" height="504" viewBox="0 0 2000 504"><g transform="matrix(1,0,0,1,-0.2467696464210576,-0.5628000000000668)"><svg viewBox="0 0 238 60" data-background-color="#ffffff" preserveAspectRatio="xMidYMid meet" height="504" width="2000" xmlns="http://www.w3.org/2000/svg" xmlns:xlink="http://www.w3.org/1999/xlink"><g id="tight-bounds" transform="matrix(1,0,0,1,0.029365587924104375,0.06700000000000728)"><svg viewBox="0 0 237.9412688241518 59.86599999999999" height="59.86599999999999" width="237.9412688241518"><g><svg viewBox="0 0 237.9412688241518 59.86599999999999" height="59.86599999999999" width="237.9412688241518"><g><svg viewBox="0 0 237.9412688241518 59.86599999999999" height="59.86599999999999" width="237.9412688241518"><g id="textblocktransform"><svg viewBox="0 0 237.9412688241518 59.86599999999999" height="59.86599999999999" width="237.9412688241518" id="textblock"><g><svg viewBox="0 0 237.9412688241518 59.86599999999999" height="59.86599999999999" width="237.9412688241518"><g><svg><g></g><g></g></svg></g><g><svg><g></g><g><svg></svg></g></svg></g><g id="text-0"><svg viewBox="0 0 237.9412688241518 59.86599999999999" height="59.86599999999999" width="237.9412688241518"><g><svg xmlns="http://www.w3.org/2000/svg" xmlns:xlink="http://www.w3.org/1999/xlink" version="1.1" x="0" y="3.552713678800501e-15" viewBox="7.050000000000002 5.460612308660186 83.25 88.96438769133984" enable-background="new 0 0 100 100" xml:space="preserve" height="59.865999999999985" width="56.02066882415184" class="icon-cg-0" data-fill-palette-color="accent" id="cg-0"><path d="M33.6 21.4h51.5c2.9 0 5.2-2.3 5.2-5.2s-2.3-5.2-5.2-5.2H33.6c-2.9 0-5.2 2.3-5.2 5.2S30.7 21.4 33.6 21.4z" fill="#767df9" data-fill-palette-color="accent"></path><path d="M85.1 34.8H33.6c-2.9 0-5.2 2.3-5.2 5.2s2.3 5.2 5.2 5.2h51.5c2.9 0 5.2-2.3 5.2-5.2S88 34.8 85.1 34.8z" fill="#767df9" data-fill-palette-color="accent"></path><path d="M85.1 58.7H33.6c-2.9 0-5.2 2.3-5.2 5.2s2.3 5.2 5.2 5.2h51.5c2.9 0 5.2-2.3 5.2-5.2S88 58.7 85.1 58.7z" fill="#767df9" data-fill-palette-color="accent"></path><path d="M85.1 82.5H33.6c-2.9 0-5.2 2.3-5.2 5.2s2.3 5.2 5.2 5.2h51.5c2.9 0 5.2-2.3 5.2-5.2S88 82.5 85.1 82.5z" fill="#767df9" data-fill-palette-color="accent"></path><path d="M24.3 7.8l-2.7-2.2c-0.3-0.2-0.7-0.2-0.9 0.1l-7.4 9.1-2.9-2.6c-0.3-0.2-0.7-0.2-0.9 0l-2.3 2.6c-0.2 0.3-0.2 0.7 0 0.9l6.2 5.6c0.3 0.2 0.7 0.2 0.9-0.1l2.2-2.7c0 0 0 0 0 0l8-9.9C24.7 8.5 24.6 8.1 24.3 7.8z" fill="#767df9" data-fill-palette-color="accent"></path><path d="M18.9 87.7l3.3-3.3c0.3-0.3 0.3-0.9 0-1.3l-1.9-1.9c-0.3-0.3-0.9-0.3-1.3 0l-3.3 3.3-3.3-3.3c-0.3-0.3-0.9-0.3-1.3 0l-1.9 1.9c-0.3 0.3-0.3 0.9 0 1.3l3.3 3.3-3.3 3.3c-0.3 0.3-0.3 0.9 0 1.3l1.9 1.9c0.3 0.3 0.9 0.3 1.3 0l3.3-3.3 3.3 3.3c0.3 0.3 0.9 0.3 1.3 0l1.9-1.9c0.3-0.3 0.3-0.9 0-1.3L18.9 87.7z" fill="#767df9" data-fill-palette-color="accent"></path><path d="M18.9 63.9l3.3-3.3c0.3-0.3 0.3-0.9 0-1.3l-1.9-1.9c-0.3-0.3-0.9-0.3-1.3 0l-3.3 3.3-3.3-3.3c-0.3-0.3-0.9-0.3-1.3 0l-1.9 1.9c-0.3 0.3-0.3 0.9 0 1.3l3.3 3.3-3.3 3.3c-0.3 0.3-0.3 0.9 0 1.3l1.9 1.9c0.3 0.3 0.9 0.3 1.3 0l3.3-3.3 3.3 3.3c0.3 0.3 0.9 0.3 1.3 0l1.9-1.9c0.3-0.3 0.3-0.9 0-1.3L18.9 63.9z" fill="#767df9" data-fill-palette-color="accent"></path><path d="M18.9 39.1l3.3-3.3c0.3-0.3 0.3-0.9 0-1.3l-1.9-1.9c-0.3-0.3-0.9-0.3-1.3 0l-3.3 3.3-3.3-3.3c-0.3-0.3-0.9-0.3-1.3 0l-1.9 1.9c-0.3 0.3-0.3 0.9 0 1.3l3.3 3.3-3.3 3.3c-0.3 0.3-0.3 0.9 0 1.3l1.9 1.9c0.3 0.3 0.9 0.3 1.3 0l3.3-3.3 3.3 3.3c0.3 0.3 0.9 0.3 1.3 0l1.9-1.9c0.3-0.3 0.3-0.9 0-1.3L18.9 39.1z" fill="#767df9" data-fill-palette-color="accent"></path></svg></g><g transform="matrix(1,0,0,1,70.15466882415184,0)"><svg width="167.78659999999996" viewBox="1.25 -36.5 103.69 37" height="59.86599999999999" data-palette-color="#767df9"><path d="M15.35-4L16.25-1.25Q15.85-1.1 15-0.7 14.15-0.3 12.95 0 11.75 0.3 10.35 0.3L10.35 0.3Q8.9 0.3 7.63-0.25 6.35-0.8 5.6-1.93 4.85-3.05 4.85-4.7L4.85-4.7 4.85-23.35 1.25-23.35 1.25-26.05 4.85-26.05 4.85-34.85 8.25-34.85 8.25-26.05 14.25-26.05 14.25-23.35 8.25-23.35 8.25-5.65Q8.35-4.25 9.28-3.55 10.2-2.85 11.4-2.85L11.4-2.85Q12.8-2.85 13.95-3.33 15.1-3.8 15.35-4L15.35-4ZM31.15 0.5L31.15 0.5Q28.35 0.5 25.97-0.58 23.6-1.65 21.87-3.53 20.15-5.4 19.2-7.83 18.25-10.25 18.25-12.95L18.25-12.95Q18.25-15.75 19.2-18.18 20.15-20.6 21.9-22.48 23.65-24.35 26.02-25.43 28.4-26.5 31.2-26.5L31.2-26.5Q34-26.5 36.35-25.43 38.7-24.35 40.45-22.48 42.2-20.6 43.15-18.18 44.1-15.75 44.1-12.95L44.1-12.95Q44.1-10.25 43.15-7.83 42.2-5.4 40.47-3.53 38.75-1.65 36.37-0.58 34 0.5 31.15 0.5ZM21.7-12.9L21.7-12.9Q21.7-10 22.97-7.63 24.25-5.25 26.4-3.88 28.55-2.5 31.15-2.5L31.15-2.5Q33.75-2.5 35.9-3.9 38.05-5.3 39.35-7.73 40.65-10.15 40.65-13L40.65-13Q40.65-15.9 39.35-18.3 38.05-20.7 35.9-22.1 33.75-23.5 31.15-23.5L31.15-23.5Q28.55-23.5 26.42-22.05 24.3-20.6 23-18.23 21.7-15.85 21.7-12.9ZM48.05-12.95L48.05-12.95Q48.05-16.65 49.57-19.73 51.09-22.8 53.8-24.65 56.5-26.5 59.95-26.5L59.95-26.5Q63.2-26.5 65.77-24.78 68.34-23.05 69.8-20.6L69.8-20.6 69.8-36.5 73.2-36.5 73.2-4.1Q73.2-3.4 73.5-3.08 73.8-2.75 74.4-2.7L74.4-2.7 74.4 0Q73.4 0.15 72.84 0.1L72.84 0.1Q71.8 0.05 71-0.75 70.2-1.55 70.2-2.5L70.2-2.5 70.2-5.05Q68.65-2.5 66-1 63.34 0.5 60.5 0.5L60.5 0.5Q57.8 0.5 55.52-0.6 53.25-1.7 51.57-3.6 49.9-5.5 48.97-7.93 48.05-10.35 48.05-12.95ZM69.8-8.95L69.8-8.95 69.8-17Q69.15-18.8 67.7-20.28 66.25-21.75 64.42-22.63 62.59-23.5 60.8-23.5L60.8-23.5Q58.7-23.5 57-22.63 55.3-21.75 54.07-20.25 52.84-18.75 52.2-16.85 51.55-14.95 51.55-12.95L51.55-12.95Q51.55-10.85 52.27-8.95 53-7.05 54.34-5.58 55.7-4.1 57.45-3.3 59.2-2.5 61.25-2.5L61.25-2.5Q62.55-2.5 63.95-3 65.34-3.5 66.62-4.38 67.9-5.25 68.75-6.45 69.59-7.65 69.8-8.95ZM91.99 0.5L91.99 0.5Q89.19 0.5 86.82-0.58 84.44-1.65 82.72-3.53 80.99-5.4 80.04-7.83 79.09-10.25 79.09-12.95L79.09-12.95Q79.09-15.75 80.04-18.18 80.99-20.6 82.74-22.48 84.49-24.35 86.87-25.43 89.24-26.5 92.04-26.5L92.04-26.5Q94.84-26.5 97.19-25.43 99.54-24.35 101.29-22.48 103.04-20.6 103.99-18.18 104.94-15.75 104.94-12.95L104.94-12.95Q104.94-10.25 103.99-7.83 103.04-5.4 101.32-3.53 99.59-1.65 97.22-0.58 94.84 0.5 91.99 0.5ZM82.54-12.9L82.54-12.9Q82.54-10 83.82-7.63 85.09-5.25 87.24-3.88 89.39-2.5 91.99-2.5L91.99-2.5Q94.59-2.5 96.74-3.9 98.89-5.3 100.19-7.73 101.49-10.15 101.49-13L101.49-13Q101.49-15.9 100.19-18.3 98.89-20.7 96.74-22.1 94.59-23.5 91.99-23.5L91.99-23.5Q89.39-23.5 87.27-22.05 85.14-20.6 83.84-18.23 82.54-15.85 82.54-12.9Z" opacity="1" transform="matrix(1,0,0,1,0,0)" fill="#767df9" class="wordmark-text-0" data-fill-palette-color="primary"></path></svg></g></svg></g></svg></g></svg></g></svg></g></svg></g><defs></defs></svg><rect width="237.9412688241518" height="59.86599999999999" fill="none" stroke="none" visibility="hidden"></rect></g></svg></g></svg>
